<?xml version="1.0" standalone="no"?>
<!DOCTYPE svg PUBLIC "-//W3C//DTD SVG 20010904//EN"
 "http://www.w3.org/TR/2001/REC-SVG-20010904/DTD/svg10.dtd">
<svg version="1.0" xmlns="http://www.w3.org/2000/svg"
 width="640.000000pt" height="489.000000pt" viewBox="0 0 640.000000 489.000000"
 preserveAspectRatio="xMidYMid meet">

<g transform="translate(0.000000,489.000000) scale(0.100000,-0.100000)"
fill="#000000" stroke="none">
<path d="M565 4883 c-277 -24 -473 -88 -537 -177 -52 -72 -31 -144 70 -237
184 -169 597 -330 1122 -439 l135 -28 0 -243 0 -244 -109 -22 c-115 -23 -207
-55 -227 -79 -7 -9 -12 -89 -14 -241 -2 -126 -5 -321 -6 -435 -3 -197 -2 -209
17 -235 29 -39 91 -68 225 -106 l114 -33 3 -155 c2 -126 0 -156 -12 -165 -8
-5 -16 -28 -18 -50 -3 -36 -60 -113 -523 -711 -312 -403 -528 -673 -539 -675
-29 -5 -79 -72 -72 -96 7 -20 45 -42 76 -42 10 0 33 18 50 41 27 33 31 44 23
62 -9 20 47 95 494 672 278 358 509 652 514 653 5 2 9 -229 9 -577 l0 -580
-27 -13 c-25 -12 -28 -19 -31 -70 l-3 -58 -202 -160 c-111 -88 -210 -160 -219
-160 -18 0 -78 -46 -78 -60 0 -9 55 -30 81 -30 27 0 82 50 70 64 -7 9 42 53
175 159 156 125 188 146 204 137 30 -16 142 -12 169 6 21 15 22 23 20 88 -5
111 15 126 57 44 59 -117 161 -245 266 -335 46 -38 68 -65 68 -79 0 -22 40
-44 82 -44 10 0 49 -15 86 -34 238 -118 539 -148 767 -74 33 10 107 25 165 33
116 16 125 19 350 99 85 30 156 53 157 52 7 -7 -258 -206 -274 -206 -11 0 -32
-13 -47 -29 -27 -29 -28 -29 -8 -40 37 -20 96 -13 121 12 12 13 19 30 16 38
-9 24 314 273 405 313 41 18 107 52 145 76 39 23 88 48 110 55 29 9 41 18 43
34 2 12 23 43 48 68 l44 47 0 -72 c0 -68 -1 -72 -26 -78 -20 -5 -24 -12 -22
-33 l3 -26 95 0 95 0 3 26 c2 21 -2 28 -22 33 l-26 6 0 138 c0 178 7 187 72
89 l48 -72 0 -250 0 -251 -30 -11 c-27 -10 -30 -16 -30 -52 0 -52 17 -61 110
-61 93 0 110 9 110 61 0 32 -4 41 -25 51 l-25 11 0 159 0 158 24 0 c14 0 36 4
49 9 23 9 26 5 70 -92 63 -141 62 -137 43 -137 -18 0 -46 -55 -46 -90 0 -21
38 -43 69 -39 9 1 23 -1 32 -5 9 -4 36 -6 60 -4 36 2 45 7 47 25 2 12 -6 31
-17 42 -10 10 -29 40 -40 66 l-21 46 38 75 37 74 175 -190 c126 -136 175 -196
175 -214 1 -34 33 -66 66 -66 34 0 79 16 79 28 0 20 -50 62 -73 62 -19 0 -60
38 -175 162 l-150 163 34 6 c19 3 37 9 41 12 11 12 -19 37 -43 37 -26 0 -106
48 -102 61 9 23 372 748 374 746 7 -6 -187 -785 -201 -809 -16 -27 -21 -94 -7
-101 4 -2 19 -7 34 -11 43 -10 59 15 57 88 -1 47 19 143 85 416 48 195 89 357
92 359 2 2 4 -176 4 -397 0 -391 -1 -402 -20 -412 -17 -9 -20 -21 -20 -78 0
-40 5 -73 12 -80 16 -16 130 -16 146 0 7 7 12 40 12 79 0 56 -3 69 -20 80 -20
14 -20 22 -18 549 l3 535 406 -605 c287 -427 404 -609 399 -620 -10 -17 24
-88 46 -97 18 -7 64 16 71 35 8 20 -29 83 -54 92 -13 6 -180 245 -434 622
-338 502 -413 620 -417 653 -2 22 -8 44 -13 50 -5 5 -9 262 -9 593 0 505 2
585 15 598 9 9 15 34 15 59 0 40 2 44 28 47 25 3 27 6 32 63 5 59 7 62 62 112
77 70 107 77 293 69 152 -7 318 6 495 38 68 13 30 14 -432 15 l-508 1 0 24 0
24 513 -5 c281 -3 509 -3 506 1 -3 3 -66 15 -140 27 -109 18 -181 22 -379 24
-232 1 -247 2 -287 23 -24 12 -50 33 -58 45 -8 13 -26 30 -40 37 -21 11 -25
21 -27 74 l-3 61 -42 3 -43 3 0 52 c0 67 -9 79 -51 75 l-34 -3 -3 -62 -3 -63
-34 0 c-29 0 -36 -4 -41 -26 -4 -14 -4 -43 -1 -65 4 -30 2 -39 -9 -39 -8 0
-33 -17 -57 -39 -71 -64 -73 -65 -302 -72 -117 -3 -267 -14 -340 -25 l-130
-19 458 -3 457 -2 0 -25 0 -25 -382 -2 c-211 -2 -413 -2 -450 -2 -38 1 -68 -1
-68 -5 0 -16 292 -45 465 -46 202 -2 237 -10 293 -70 18 -18 41 -36 51 -40 15
-4 17 -13 13 -55 -5 -59 8 -80 50 -80 l29 0 -3 -722 -3 -723 -228 -459 c-125
-253 -229 -461 -231 -463 -14 -15 -277 245 -328 323 -14 23 -16 73 -17 425
l-2 399 35 0 c55 0 263 29 336 47 89 22 140 73 165 166 39 144 -22 253 -185
331 l-67 33 131 42 c144 48 223 85 231 111 3 9 -9 81 -26 161 -17 79 -32 153
-33 164 -1 11 -5 27 -9 35 -3 8 -8 31 -9 50 -4 42 -19 48 -133 49 -399 5
-1449 -215 -1570 -329 -19 -18 -20 -25 -11 -80 5 -33 7 -62 3 -66 -3 -3 -72
-3 -153 1 l-147 8 7 236 c3 130 8 326 9 435 2 195 2 201 -20 227 -43 51 -208
107 -440 148 -248 45 -392 55 -750 56 l-343 0 0 228 c0 175 3 227 13 227 6 0
93 -10 192 -22 245 -29 675 -32 843 -5 192 30 307 74 372 142 31 32 35 42 35
90 0 43 -6 61 -30 96 -157 223 -816 466 -1512 558 -305 41 -647 59 -818 44z
m1085 -2567 c63 -8 159 -18 213 -21 53 -4 99 -11 102 -15 2 -4 -20 -24 -49
-44 -69 -47 -220 -203 -273 -281 -22 -33 -55 -89 -72 -124 l-33 -64 -31 54
-31 54 -4 234 -4 234 34 -6 c18 -4 85 -13 148 -21z m2690 -976 c0 -302 -2
-351 -15 -356 -8 -4 -15 -16 -15 -28 0 -30 -20 -49 -36 -35 -10 8 -10 18 1 50
8 22 21 77 29 122 38 211 30 363 -30 575 -6 20 -3 22 30 22 l36 0 0 -350z
m-2816 -541 c5 -12 -2 -23 -23 -39 l-31 -21 0 108 1 108 23 -70 c13 -38 27
-77 30 -86z m2816 91 c0 -5 -5 -10 -11 -10 -5 0 -7 5 -4 10 3 6 8 10 11 10 2
0 4 -4 4 -10z m-16 -39 c10 -11 16 -25 14 -32 -2 -7 -14 1 -27 19 -24 35 -15
44 13 13z m227 -117 c22 -25 22 -26 3 -16 -12 6 -24 18 -28 27 -8 21 -3 19 25
-11z m-21 -180 c0 -16 -25 3 -50 38 -23 32 -30 51 -29 87 l0 46 40 -84 c21
-46 39 -85 39 -87z m194 -8 l44 -51 -33 -65 c-30 -58 -33 -62 -43 -43 -16 29
-132 285 -132 290 0 14 127 -88 164 -131z"/>
</g>
</svg>
